<svg version="1.1" xmlns="http://www.w3.org/2000/svg" viewBox="0 0 423.33333333333303 358.33333333333303" width="423.33333333333303" height="358.33333333333303" filter="invert(93%) hue-rotate(180deg)">
  <!-- svg-source:excalidraw -->

  <defs>
    <style class="style-fonts">
      @font-face {
        font-family: "Virgil";
        src: url("https://excalidraw.com/Virgil.woff2");
      }
      @font-face {
        font-family: "Cascadia";
        src: url("https://excalidraw.com/Cascadia.woff2");
      }
      @font-face {
        font-family: "Assistant";
        src: url("https://excalidraw.com/Assistant-Regular.woff2");
      }
    </style>

  </defs>
  <g stroke-linecap="round" transform="translate(9.999999999999773 10) rotate(0 201.66666666666663 169.16666666666652)"><path d="M239.4 3.46 C257.83 3.54, 276.71 10.65, 293.64 17.88 C310.57 25.11, 327.41 35.86, 340.98 46.81 C354.56 57.77, 365.68 70.06, 375.09 83.61 C384.5 97.16, 392.85 112.57, 397.44 128.12 C402.02 143.67, 403.59 161.02, 402.6 176.91 C401.6 192.8, 397.51 208.54, 391.48 223.45 C385.44 238.36, 377.29 253.33, 366.38 266.39 C355.47 279.45, 341.02 291.98, 326.03 301.82 C311.05 311.66, 293.83 319.61, 276.45 325.45 C259.07 331.28, 240.34 335.16, 221.74 336.81 C203.14 338.47, 183.44 338.09, 164.86 335.36 C146.29 332.63, 127.32 327.79, 110.3 320.44 C93.29 313.09, 76.5 302.21, 62.77 291.25 C49.03 280.29, 37.52 268.39, 27.89 254.68 C18.25 240.98, 9.65 224.53, 4.97 209.04 C0.3 193.56, -1.28 177.43, -0.15 161.76 C0.99 146.1, 5.68 130.09, 11.78 115.04 C17.88 100, 25.56 84.71, 36.46 71.48 C47.37 58.25, 62.26 45.6, 77.2 35.67 C92.15 25.74, 108.74 17.87, 126.13 11.9 C143.51 5.92, 159.69 0.83, 181.51 -0.18 C203.33 -1.19, 241.72 3.29, 257.03 5.83 C272.34 8.38, 274.22 12.15, 273.36 15.08 M270.54 10.8 C288.46 12.98, 305.04 21.86, 320.14 31.27 C335.24 40.68, 349.58 54.43, 361.13 67.27 C372.67 80.1, 382.67 93.74, 389.38 108.27 C396.09 122.8, 399.57 138.58, 401.38 154.47 C403.19 170.36, 403.68 187.71, 400.25 203.64 C396.82 219.57, 390.11 236.26, 380.8 250.04 C371.5 263.82, 358.08 275.09, 344.4 286.32 C330.72 297.55, 315.21 309.24, 298.72 317.43 C282.23 325.61, 263.76 331.78, 245.46 335.43 C227.17 339.07, 207.74 340.6, 188.93 339.31 C170.13 338.02, 150.49 333.18, 132.62 327.7 C114.75 322.23, 96.7 315.71, 81.7 306.46 C66.7 297.22, 53.96 285.17, 42.61 272.23 C31.26 259.3, 20.8 243.77, 13.59 228.87 C6.37 213.98, 0.81 198.4, -0.68 182.84 C-2.17 167.27, 0.81 150.9, 4.68 135.49 C8.54 120.08, 13.69 104.38, 22.52 90.39 C31.34 76.4, 44.26 63, 57.63 51.57 C71 40.15, 86.24 29.76, 102.76 21.85 C119.28 13.94, 138.42 7.8, 156.75 4.14 C175.07 0.47, 193.78 -1.19, 212.72 -0.14 C231.66 0.92, 260.95 8.19, 270.36 10.45 C279.77 12.71, 270.51 10.67, 269.17 13.41" stroke="none" stroke-width="0" fill="#e8590c"></path><path d="M206.27 -0.73 C224.44 -3.29, 244.53 2.33, 262.56 7.19 C280.59 12.04, 298.86 19.41, 314.47 28.37 C330.08 37.33, 344.25 48.88, 356.24 60.95 C368.22 73.02, 378.91 86.34, 386.37 100.8 C393.82 115.27, 398.53 131.93, 400.98 147.75 C403.42 163.56, 403.94 179.83, 401.04 195.7 C398.14 211.57, 391.97 228.51, 383.58 242.97 C375.19 257.43, 363.2 270.63, 350.68 282.46 C338.17 294.28, 324.6 305.64, 308.49 313.93 C292.38 322.22, 272.44 328.32, 254.02 332.22 C235.6 336.12, 216.73 337.61, 197.95 337.34 C179.18 337.07, 159.29 335.06, 141.35 330.58 C123.42 326.1, 106.1 319.46, 90.35 310.46 C74.59 301.47, 59.02 289.1, 46.82 276.63 C34.62 264.16, 24.78 249.96, 17.14 235.64 C9.49 221.32, 3.46 206.43, 0.93 190.72 C-1.6 175.02, -1.07 157.33, 1.95 141.41 C4.97 125.49, 10.84 109.58, 19.05 95.2 C27.26 80.82, 38.6 66.76, 51.24 55.15 C63.87 43.54, 78.58 33.8, 94.85 25.53 C111.12 17.25, 128.17 9.53, 148.85 5.5 C169.52 1.47, 205.17 1.44, 218.9 1.38 C232.63 1.31, 231.5 2.41, 231.22 5.11 M148.97 5.56 C165.79 -1, 189.6 -1.15, 208.62 -0.78 C227.63 -0.41, 245.19 2.89, 263.06 7.78 C280.93 12.67, 300.11 19.66, 315.86 28.55 C331.61 37.45, 345.72 48.71, 357.57 61.14 C369.43 73.58, 379.53 88.51, 387 103.15 C394.47 117.79, 399.97 133.23, 402.39 148.99 C404.81 164.75, 404.96 182.06, 401.51 197.74 C398.06 213.42, 389.99 228.67, 381.67 243.06 C373.36 257.45, 364.01 272.03, 351.62 284.08 C339.22 296.12, 323.81 307.41, 307.31 315.32 C290.82 323.23, 271.19 327.67, 252.64 331.53 C234.09 335.39, 214.63 338.62, 196.01 338.48 C177.39 338.34, 158.84 335.76, 140.92 330.68 C123 325.61, 104.32 316.92, 88.51 308.02 C72.7 299.13, 58.38 289.36, 46.05 277.31 C33.72 265.25, 22.17 250.73, 14.56 235.7 C6.95 220.66, 2.32 202.97, 0.39 187.1 C-1.54 171.24, -0.4 156.16, 2.98 140.52 C6.35 124.88, 12.22 107.31, 20.62 93.29 C29.03 79.26, 40.65 67.65, 53.43 56.38 C66.21 45.12, 81.19 34.38, 97.3 25.73 C113.4 17.08, 140.83 7.06, 150.08 4.48 C159.32 1.91, 151.89 7.3, 152.75 10.29" stroke="#b2f2bb" stroke-width="4" fill="none"></path></g></svg>
