<svg version="1.1" xmlns="http://www.w3.org/2000/svg" viewBox="0 0 290.3325984429498 271.3388305593237" width="290.3325984429498" height="271.3388305593237" filter="invert(93%) hue-rotate(180deg)">
  <!-- svg-source:excalidraw -->
  
  <defs>
    <style class="style-fonts">
      @font-face {
        font-family: "Virgil";
        src: url("https://excalidraw.com/Virgil.woff2");
      }
      @font-face {
        font-family: "Cascadia";
        src: url("https://excalidraw.com/Cascadia.woff2");
      }
      @font-face {
        font-family: "Assistant";
        src: url("https://excalidraw.com/Assistant-Regular.woff2");
      }
    </style>
    
  </defs>
  <g stroke-linecap="round"><g transform="translate(11.735013700658556 234.06793888234347) rotate(0 133.5 -100)" fill-rule="evenodd"><path d="M1.05 1.47 C23.31 -35.97, 91.17 -222.64, 135.51 -222.54 C179.85 -222.45, 265.32 -38.72, 267.08 2.03 C268.85 42.78, 184.75 18.28, 146.08 21.96 C107.42 25.64, 59.59 27.99, 35.1 24.11 C10.61 20.23, 5 2.84, -0.84 -1.33" stroke="none" stroke-width="0" fill="#12b886" fill-rule="evenodd"></path><path d="M-0.18 -1.1 C22.47 -38.2, 90.74 -222.67, 135.13 -222.31 C179.51 -221.95, 263.98 -39.78, 266.12 1.07 C268.25 41.92, 186.55 19.09, 147.93 22.79 C109.31 26.48, 59.09 26.91, 34.4 23.22 C9.71 19.54, 5.67 4.44, -0.2 0.67 M-1.74 0.93 C20.83 -36.54, 89.2 -224.32, 134.25 -224.07 C179.29 -223.82, 266.14 -38.88, 268.55 2.43 C270.95 43.73, 187.89 20.23, 148.66 23.78 C109.42 27.33, 57.73 27.69, 33.14 23.73 C8.54 19.76, 6.74 4.01, 1.11 -0.01" stroke="#ffec99" stroke-width="4" fill="none"></path></g></g><mask></mask><g stroke-linecap="round" transform="translate(198.23501370065856 144.06793888234347) rotate(0 14.5 37)"><path d="M29 37 C29 39.14, 28.93 41.32, 28.78 43.42 C28.63 45.53, 28.41 47.64, 28.13 49.65 C27.84 51.67, 27.48 53.65, 27.06 55.5 C26.64 57.35, 26.15 59.14, 25.61 60.78 C25.07 62.42, 24.46 63.97, 23.82 65.34 C23.18 66.72, 22.48 67.97, 21.75 69.04 C21.02 70.11, 20.25 71.04, 19.46 71.77 C18.67 72.5, 17.84 73.07, 17.02 73.44 C16.19 73.81, 15.34 74, 14.5 74 C13.66 74, 12.81 73.81, 11.98 73.44 C11.16 73.07, 10.33 72.5, 9.54 71.77 C8.75 71.04, 7.98 70.11, 7.25 69.04 C6.52 67.97, 5.82 66.72, 5.18 65.34 C4.54 63.97, 3.93 62.42, 3.39 60.78 C2.85 59.14, 2.36 57.35, 1.94 55.5 C1.52 53.65, 1.16 51.67, 0.87 49.65 C0.59 47.64, 0.37 45.53, 0.22 43.42 C0.07 41.32, 0 39.14, 0 37 C0 34.86, 0.07 32.68, 0.22 30.58 C0.37 28.47, 0.59 26.36, 0.87 24.35 C1.16 22.33, 1.52 20.35, 1.94 18.5 C2.36 16.65, 2.85 14.86, 3.39 13.22 C3.93 11.58, 4.54 10.03, 5.18 8.66 C5.82 7.28, 6.52 6.03, 7.25 4.96 C7.98 3.89, 8.75 2.96, 9.54 2.23 C10.33 1.5, 11.16 0.93, 11.98 0.56 C12.81 0.19, 13.66 0, 14.5 0 C15.34 0, 16.19 0.19, 17.02 0.56 C17.84 0.93, 18.67 1.5, 19.46 2.23 C20.25 2.96, 21.02 3.89, 21.75 4.96 C22.48 6.03, 23.18 7.28, 23.82 8.66 C24.46 10.03, 25.07 11.58, 25.61 13.22 C26.15 14.86, 26.64 16.65, 27.06 18.5 C27.48 20.35, 27.84 22.33, 28.13 24.35 C28.41 26.36, 28.63 28.47, 28.78 30.58 C28.93 32.68, 28.96 35.93, 29 37 C29.04 38.07, 29.04 35.93, 29 37" stroke="none" stroke-width="0" fill="#fd7e14"></path><path d="M29 37 C29 39.14, 28.93 41.32, 28.78 43.42 C28.63 45.53, 28.41 47.64, 28.13 49.65 C27.84 51.67, 27.48 53.65, 27.06 55.5 C26.64 57.35, 26.15 59.14, 25.61 60.78 C25.07 62.42, 24.46 63.97, 23.82 65.34 C23.18 66.72, 22.48 67.97, 21.75 69.04 C21.02 70.11, 20.25 71.04, 19.46 71.77 C18.67 72.5, 17.84 73.07, 17.02 73.44 C16.19 73.81, 15.34 74, 14.5 74 C13.66 74, 12.81 73.81, 11.98 73.44 C11.16 73.07, 10.33 72.5, 9.54 71.77 C8.75 71.04, 7.98 70.11, 7.25 69.04 C6.52 67.97, 5.82 66.72, 5.18 65.34 C4.54 63.97, 3.93 62.42, 3.39 60.78 C2.85 59.14, 2.36 57.35, 1.94 55.5 C1.52 53.65, 1.16 51.67, 0.87 49.65 C0.59 47.64, 0.37 45.53, 0.22 43.42 C0.07 41.32, 0 39.14, 0 37 C0 34.86, 0.07 32.68, 0.22 30.58 C0.37 28.47, 0.59 26.36, 0.87 24.35 C1.16 22.33, 1.52 20.35, 1.94 18.5 C2.36 16.65, 2.85 14.86, 3.39 13.22 C3.93 11.58, 4.54 10.03, 5.18 8.66 C5.82 7.28, 6.52 6.03, 7.25 4.96 C7.98 3.89, 8.75 2.96, 9.54 2.23 C10.33 1.5, 11.16 0.93, 11.98 0.56 C12.81 0.19, 13.66 0, 14.5 0 C15.34 0, 16.19 0.19, 17.02 0.56 C17.84 0.93, 18.67 1.5, 19.46 2.23 C20.25 2.96, 21.02 3.89, 21.75 4.96 C22.48 6.03, 23.18 7.28, 23.82 8.66 C24.46 10.03, 25.07 11.58, 25.61 13.22 C26.15 14.86, 26.64 16.65, 27.06 18.5 C27.48 20.35, 27.84 22.33, 28.13 24.35 C28.41 26.36, 28.63 28.47, 28.78 30.58 C28.93 32.68, 28.96 35.93, 29 37 C29.04 38.07, 29.04 35.93, 29 37" stroke="#b2f2bb" stroke-width="4" fill="none"></path></g><g stroke-linecap="round" transform="translate(205.23501370065856 152.06793888234347) rotate(0 5.5 14)"><path d="M11 14 C11 14.81, 10.97 15.63, 10.92 16.43 C10.86 17.23, 10.78 18.03, 10.67 18.79 C10.56 19.55, 10.42 20.3, 10.26 21 C10.1 21.7, 9.92 22.38, 9.71 23 C9.51 23.62, 9.28 24.2, 9.04 24.72 C8.79 25.25, 8.53 25.72, 8.25 26.12 C7.97 26.53, 7.68 26.88, 7.38 27.16 C7.08 27.43, 6.77 27.65, 6.46 27.79 C6.14 27.93, 5.82 28, 5.5 28 C5.18 28, 4.86 27.93, 4.54 27.79 C4.23 27.65, 3.92 27.43, 3.62 27.16 C3.32 26.88, 3.03 26.53, 2.75 26.12 C2.47 25.72, 2.21 25.25, 1.96 24.72 C1.72 24.2, 1.49 23.62, 1.29 23 C1.08 22.38, 0.9 21.7, 0.74 21 C0.58 20.3, 0.44 19.55, 0.33 18.79 C0.22 18.03, 0.14 17.23, 0.08 16.43 C0.03 15.63, 0 14.81, 0 14 C0 13.19, 0.03 12.37, 0.08 11.57 C0.14 10.77, 0.22 9.97, 0.33 9.21 C0.44 8.45, 0.58 7.7, 0.74 7 C0.9 6.3, 1.08 5.62, 1.29 5 C1.49 4.38, 1.72 3.8, 1.96 3.28 C2.21 2.75, 2.47 2.28, 2.75 1.88 C3.03 1.47, 3.32 1.12, 3.62 0.84 C3.92 0.57, 4.23 0.35, 4.54 0.21 C4.86 0.07, 5.18 0, 5.5 0 C5.82 0, 6.14 0.07, 6.46 0.21 C6.77 0.35, 7.08 0.57, 7.38 0.84 C7.68 1.12, 7.97 1.47, 8.25 1.88 C8.53 2.28, 8.79 2.75, 9.04 3.28 C9.28 3.8, 9.51 4.38, 9.71 5 C9.92 5.62, 10.1 6.3, 10.26 7 C10.42 7.7, 10.56 8.45, 10.67 9.21 C10.78 9.97, 10.86 10.77, 10.92 11.57 C10.97 12.37, 10.99 13.59, 11 14 C11.01 14.41, 11.01 13.59, 11 14" stroke="none" stroke-width="0" fill="#000000"></path><path d="M11 14 C11 14.81, 10.97 15.63, 10.92 16.43 C10.86 17.23, 10.78 18.03, 10.67 18.79 C10.56 19.55, 10.42 20.3, 10.26 21 C10.1 21.7, 9.92 22.38, 9.71 23 C9.51 23.62, 9.28 24.2, 9.04 24.72 C8.79 25.25, 8.53 25.72, 8.25 26.12 C7.97 26.53, 7.68 26.88, 7.38 27.16 C7.08 27.43, 6.77 27.65, 6.46 27.79 C6.14 27.93, 5.82 28, 5.5 28 C5.18 28, 4.86 27.93, 4.54 27.79 C4.23 27.65, 3.92 27.43, 3.62 27.16 C3.32 26.88, 3.03 26.53, 2.75 26.12 C2.47 25.72, 2.21 25.25, 1.96 24.72 C1.72 24.2, 1.49 23.62, 1.29 23 C1.08 22.38, 0.9 21.7, 0.74 21 C0.58 20.3, 0.44 19.55, 0.33 18.79 C0.22 18.03, 0.14 17.23, 0.08 16.43 C0.03 15.63, 0 14.81, 0 14 C0 13.19, 0.03 12.37, 0.08 11.57 C0.14 10.77, 0.22 9.97, 0.33 9.21 C0.44 8.45, 0.58 7.7, 0.74 7 C0.9 6.3, 1.08 5.62, 1.29 5 C1.49 4.38, 1.72 3.8, 1.96 3.28 C2.21 2.75, 2.47 2.28, 2.75 1.88 C3.03 1.47, 3.32 1.12, 3.62 0.84 C3.92 0.57, 4.23 0.35, 4.54 0.21 C4.86 0.07, 5.18 0, 5.5 0 C5.82 0, 6.14 0.07, 6.46 0.21 C6.77 0.35, 7.08 0.57, 7.38 0.84 C7.68 1.12, 7.97 1.47, 8.25 1.88 C8.53 2.28, 8.79 2.75, 9.04 3.28 C9.28 3.8, 9.51 4.38, 9.71 5 C9.92 5.62, 10.1 6.3, 10.26 7 C10.42 7.7, 10.56 8.45, 10.67 9.21 C10.78 9.97, 10.86 10.77, 10.92 11.57 C10.97 12.37, 10.99 13.59, 11 14 C11.01 14.41, 11.01 13.59, 11 14" stroke="#b2f2bb" stroke-width="4" fill="none"></path></g><g stroke-linecap="round" transform="translate(63.235013700658556 148.06793888234347) rotate(0 14.5 37)"><path d="M29 37 C29 39.14, 28.93 41.32, 28.78 43.42 C28.63 45.53, 28.41 47.64, 28.13 49.65 C27.84 51.67, 27.48 53.65, 27.06 55.5 C26.64 57.35, 26.15 59.14, 25.61 60.78 C25.07 62.42, 24.46 63.97, 23.82 65.34 C23.18 66.72, 22.48 67.97, 21.75 69.04 C21.02 70.11, 20.25 71.04, 19.46 71.77 C18.67 72.5, 17.84 73.07, 17.02 73.44 C16.19 73.81, 15.34 74, 14.5 74 C13.66 74, 12.81 73.81, 11.98 73.44 C11.16 73.07, 10.33 72.5, 9.54 71.77 C8.75 71.04, 7.98 70.11, 7.25 69.04 C6.52 67.97, 5.82 66.72, 5.18 65.34 C4.54 63.97, 3.93 62.42, 3.39 60.78 C2.85 59.14, 2.36 57.35, 1.94 55.5 C1.52 53.65, 1.16 51.67, 0.87 49.65 C0.59 47.64, 0.37 45.53, 0.22 43.42 C0.07 41.32, 0 39.14, 0 37 C0 34.86, 0.07 32.68, 0.22 30.58 C0.37 28.47, 0.59 26.36, 0.87 24.35 C1.16 22.33, 1.52 20.35, 1.94 18.5 C2.36 16.65, 2.85 14.86, 3.39 13.22 C3.93 11.58, 4.54 10.03, 5.18 8.66 C5.82 7.28, 6.52 6.03, 7.25 4.96 C7.98 3.89, 8.75 2.96, 9.54 2.23 C10.33 1.5, 11.16 0.93, 11.98 0.56 C12.81 0.19, 13.66 0, 14.5 0 C15.34 0, 16.19 0.19, 17.02 0.56 C17.84 0.93, 18.67 1.5, 19.46 2.23 C20.25 2.96, 21.02 3.89, 21.75 4.96 C22.48 6.03, 23.18 7.28, 23.82 8.66 C24.46 10.03, 25.07 11.58, 25.61 13.22 C26.15 14.86, 26.64 16.65, 27.06 18.5 C27.48 20.35, 27.84 22.33, 28.13 24.35 C28.41 26.36, 28.63 28.47, 28.78 30.58 C28.93 32.68, 28.96 35.93, 29 37 C29.04 38.07, 29.04 35.93, 29 37" stroke="none" stroke-width="0" fill="#fd7e14"></path><path d="M29 37 C29 39.14, 28.93 41.32, 28.78 43.42 C28.63 45.53, 28.41 47.64, 28.13 49.65 C27.84 51.67, 27.48 53.65, 27.06 55.5 C26.64 57.35, 26.15 59.14, 25.61 60.78 C25.07 62.42, 24.46 63.97, 23.82 65.34 C23.18 66.72, 22.48 67.97, 21.75 69.04 C21.02 70.11, 20.25 71.04, 19.46 71.77 C18.67 72.5, 17.84 73.07, 17.02 73.44 C16.19 73.81, 15.34 74, 14.5 74 C13.66 74, 12.81 73.81, 11.98 73.44 C11.16 73.07, 10.33 72.5, 9.54 71.77 C8.75 71.04, 7.98 70.11, 7.25 69.04 C6.52 67.97, 5.82 66.72, 5.18 65.34 C4.54 63.97, 3.93 62.42, 3.39 60.78 C2.85 59.14, 2.36 57.35, 1.94 55.5 C1.52 53.65, 1.16 51.67, 0.87 49.65 C0.59 47.64, 0.37 45.53, 0.22 43.42 C0.07 41.32, 0 39.14, 0 37 C0 34.86, 0.07 32.68, 0.22 30.58 C0.37 28.47, 0.59 26.36, 0.87 24.35 C1.16 22.33, 1.52 20.35, 1.94 18.5 C2.36 16.65, 2.85 14.86, 3.39 13.22 C3.93 11.58, 4.54 10.03, 5.18 8.66 C5.82 7.28, 6.52 6.03, 7.25 4.96 C7.98 3.89, 8.75 2.96, 9.54 2.23 C10.33 1.5, 11.16 0.93, 11.98 0.56 C12.81 0.19, 13.66 0, 14.5 0 C15.34 0, 16.19 0.19, 17.02 0.56 C17.84 0.93, 18.67 1.5, 19.46 2.23 C20.25 2.96, 21.02 3.89, 21.75 4.96 C22.48 6.03, 23.18 7.28, 23.82 8.66 C24.46 10.03, 25.07 11.58, 25.61 13.22 C26.15 14.86, 26.64 16.65, 27.06 18.5 C27.48 20.35, 27.84 22.33, 28.13 24.35 C28.41 26.36, 28.63 28.47, 28.78 30.58 C28.93 32.68, 28.96 35.93, 29 37 C29.04 38.07, 29.04 35.93, 29 37" stroke="#b2f2bb" stroke-width="4" fill="none"></path></g><g stroke-linecap="round" transform="translate(74.23501370065856 156.06793888234347) rotate(0 5.5 14)"><path d="M11 14 C11 14.81, 10.97 15.63, 10.92 16.43 C10.86 17.23, 10.78 18.03, 10.67 18.79 C10.56 19.55, 10.42 20.3, 10.26 21 C10.1 21.7, 9.92 22.38, 9.71 23 C9.51 23.62, 9.28 24.2, 9.04 24.72 C8.79 25.25, 8.53 25.72, 8.25 26.12 C7.97 26.53, 7.68 26.88, 7.38 27.16 C7.08 27.43, 6.77 27.65, 6.46 27.79 C6.14 27.93, 5.82 28, 5.5 28 C5.18 28, 4.86 27.93, 4.54 27.79 C4.23 27.65, 3.92 27.43, 3.62 27.16 C3.32 26.88, 3.03 26.53, 2.75 26.12 C2.47 25.72, 2.21 25.25, 1.96 24.72 C1.72 24.2, 1.49 23.62, 1.29 23 C1.08 22.38, 0.9 21.7, 0.74 21 C0.58 20.3, 0.44 19.55, 0.33 18.79 C0.22 18.03, 0.14 17.23, 0.08 16.43 C0.03 15.63, 0 14.81, 0 14 C0 13.19, 0.03 12.37, 0.08 11.57 C0.14 10.77, 0.22 9.97, 0.33 9.21 C0.44 8.45, 0.58 7.7, 0.74 7 C0.9 6.3, 1.08 5.62, 1.29 5 C1.49 4.38, 1.72 3.8, 1.96 3.28 C2.21 2.75, 2.47 2.28, 2.75 1.88 C3.03 1.47, 3.32 1.12, 3.62 0.84 C3.92 0.57, 4.23 0.35, 4.54 0.21 C4.86 0.07, 5.18 0, 5.5 0 C5.82 0, 6.14 0.07, 6.46 0.21 C6.77 0.35, 7.08 0.57, 7.38 0.84 C7.68 1.12, 7.97 1.47, 8.25 1.88 C8.53 2.28, 8.79 2.75, 9.04 3.28 C9.28 3.8, 9.51 4.38, 9.71 5 C9.92 5.62, 10.1 6.3, 10.26 7 C10.42 7.7, 10.56 8.45, 10.67 9.21 C10.78 9.97, 10.86 10.77, 10.92 11.57 C10.97 12.37, 10.99 13.59, 11 14 C11.01 14.41, 11.01 13.59, 11 14" stroke="none" stroke-width="0" fill="#000000"></path><path d="M11 14 C11 14.81, 10.97 15.63, 10.92 16.43 C10.86 17.23, 10.78 18.03, 10.67 18.79 C10.56 19.55, 10.42 20.3, 10.26 21 C10.1 21.7, 9.92 22.38, 9.71 23 C9.51 23.62, 9.28 24.2, 9.04 24.72 C8.79 25.25, 8.53 25.72, 8.25 26.12 C7.97 26.53, 7.68 26.88, 7.38 27.16 C7.08 27.43, 6.77 27.65, 6.46 27.79 C6.14 27.93, 5.82 28, 5.5 28 C5.18 28, 4.86 27.93, 4.54 27.79 C4.23 27.65, 3.92 27.43, 3.62 27.16 C3.32 26.88, 3.03 26.53, 2.75 26.12 C2.47 25.72, 2.21 25.25, 1.96 24.72 C1.72 24.2, 1.49 23.62, 1.29 23 C1.08 22.38, 0.9 21.7, 0.74 21 C0.58 20.3, 0.44 19.55, 0.33 18.79 C0.22 18.03, 0.14 17.23, 0.08 16.43 C0.03 15.63, 0 14.81, 0 14 C0 13.19, 0.03 12.37, 0.08 11.57 C0.14 10.77, 0.22 9.97, 0.33 9.21 C0.44 8.45, 0.58 7.7, 0.74 7 C0.9 6.3, 1.08 5.62, 1.29 5 C1.49 4.38, 1.72 3.8, 1.96 3.28 C2.21 2.75, 2.47 2.28, 2.75 1.88 C3.03 1.47, 3.32 1.12, 3.62 0.84 C3.92 0.57, 4.23 0.35, 4.54 0.21 C4.86 0.07, 5.18 0, 5.5 0 C5.82 0, 6.14 0.07, 6.46 0.21 C6.77 0.35, 7.08 0.57, 7.38 0.84 C7.68 1.12, 7.97 1.47, 8.25 1.88 C8.53 2.28, 8.79 2.75, 9.04 3.28 C9.28 3.8, 9.51 4.38, 9.71 5 C9.92 5.62, 10.1 6.3, 10.26 7 C10.42 7.7, 10.56 8.45, 10.67 9.21 C10.78 9.97, 10.86 10.77, 10.92 11.57 C10.97 12.37, 10.99 13.59, 11 14 C11.01 14.41, 11.01 13.59, 11 14" stroke="#b2f2bb" stroke-width="4" fill="none"></path></g></svg>