<svg version="1.1" xmlns="http://www.w3.org/2000/svg" viewBox="0 0 488.33333333333326 488.3333333333335" width="488.33333333333326" height="488.3333333333335" filter="invert(93%) hue-rotate(180deg)">
  <!-- svg-source:excalidraw -->

  <defs>
    <style class="style-fonts">
      @font-face {
        font-family: "Virgil";
        src: url("https://excalidraw.com/Virgil.woff2");
      }
      @font-face {
        font-family: "Cascadia";
        src: url("https://excalidraw.com/Cascadia.woff2");
      }
      @font-face {
        font-family: "Assistant";
        src: url("https://excalidraw.com/Assistant-Regular.woff2");
      }
    </style>

  </defs>
  <g stroke-linecap="round" transform="translate(10 10) rotate(0 234.16666666666663 234.16666666666674)"><path d="M32 0 C172.08 -2.77, 315.49 -1.83, 436.33 0 C456.72 -3.3, 466.24 10.29, 468.33 32 C464.25 181.41, 467.35 327.69, 468.33 436.33 C466.27 458.46, 454.19 465.25, 436.33 468.33 C296.78 471.22, 157.6 470.44, 32 468.33 C8.56 468.26, -2.72 457.91, 0 436.33 C-1.8 304.68, -2.41 171.64, 0 32 C1.81 9.61, 8.14 -0.8, 32 0" stroke="none" stroke-width="0" fill="#fd7e14"></path><path d="M32 0 C151.17 1.31, 269.06 1.76, 436.33 0 M32 0 C189.72 -0.37, 346.38 -0.12, 436.33 0 M436.33 0 C456.43 -1.03, 467.64 11.26, 468.33 32 M436.33 0 C459.67 -1.56, 469.37 10.93, 468.33 32 M468.33 32 C468.79 118.65, 469.14 202.71, 468.33 436.33 M468.33 32 C468.25 190.54, 468.42 348.76, 468.33 436.33 M468.33 436.33 C470.12 455.78, 457.06 469, 436.33 468.33 M468.33 436.33 C466.06 458.34, 455.97 469.62, 436.33 468.33 M436.33 468.33 C334.3 465.95, 233.3 465.94, 32 468.33 M436.33 468.33 C346.87 468.75, 257.26 469.03, 32 468.33 M32 468.33 C9.97 469.16, 1.76 457.14, 0 436.33 M32 468.33 C9.72 467.94, -0.73 459.82, 0 436.33 M0 436.33 C-0.38 274.88, -2.18 113.99, 0 32 M0 436.33 C1.1 321.51, 1.04 206.63, 0 32 M0 32 C1.73 11.1, 10.9 -0.4, 32 0 M0 32 C0.15 10.71, 11.85 0.76, 32 0" stroke="#1971c2" stroke-width="1" fill="none"></path></g><g stroke-linecap="round"><g transform="translate(389.9496852226682 59.99978618082196) rotate(0 -146.64150927800097 187.5000120664929)"><path d="M0.22 -0.77 C-45.08 11.18, -271.78 38.89, -274.4 72.66 C-277.02 106.43, -12.76 151.7, -15.49 201.85 C-18.22 252, -244.64 344.55, -290.78 373.56 M-3.1 -3.66 C-48.64 8.58, -275.15 42.08, -277.27 75.62 C-279.39 109.16, -12.45 147.64, -15.82 197.59 C-19.19 247.55, -250.91 345.44, -297.48 375.38" stroke="#000000" stroke-width="4" fill="none"></path></g></g><mask></mask></svg>