<svg version="1.1" xmlns="http://www.w3.org/2000/svg" viewBox="0 0 288.6476386882466 271.89888929203335" width="288.6476386882466" height="271.89888929203335" filter="invert(93%) hue-rotate(180deg)">
  <!-- svg-source:excalidraw -->
  
  <defs>
    <style class="style-fonts">
      @font-face {
        font-family: "Virgil";
        src: url("https://excalidraw.com/Virgil.woff2");
      }
      @font-face {
        font-family: "Cascadia";
        src: url("https://excalidraw.com/Cascadia.woff2");
      }
      @font-face {
        font-family: "Assistant";
        src: url("https://excalidraw.com/Assistant-Regular.woff2");
      }
    </style>
    
  </defs>
  <g stroke-linecap="round"><g transform="translate(277.9862507581813 37.394748022371004) rotate(0 -133.50000000000023 100.00000000000023)" fill-rule="evenodd"><path d="M-1.95 1.83 C-24.32 39.42, -89.64 223.85, -133.81 223.36 C-177.97 222.86, -264.35 39.6, -266.94 -1.14 C-269.53 -41.87, -187.78 -17.12, -149.35 -21.07 C-110.93 -25.01, -61.61 -28.24, -36.37 -24.8 C-11.13 -21.35, -3.88 -4.85, 2.07 -0.4" stroke="none" stroke-width="0" fill="#12b886" fill-rule="evenodd"></path><path d="M0.24 -0.16 C-22.23 37.02, -89.8 222.99, -134.36 222.98 C-178.92 222.97, -264.92 40.63, -267.12 -0.22 C-269.32 -41.07, -186.5 -18.23, -147.55 -22.11 C-108.6 -25.99, -58.14 -27.35, -33.43 -23.49 C-8.73 -19.63, -4.82 -2.98, 0.66 1.06 M-1.09 -1.3 C-23.7 36.1, -90.49 224.65, -134.97 224.5 C-179.45 224.36, -265.84 39.29, -267.95 -2.16 C-270.05 -43.6, -186.48 -20.66, -147.59 -24.19 C-108.7 -27.73, -59 -27.49, -34.61 -23.36 C-10.22 -19.23, -6.97 -3.29, -1.24 0.57" stroke="#ffec99" stroke-width="4" fill="none"></path></g></g><mask></mask></svg>